<?xml version="1.0" standalone="no"?>
<!DOCTYPE svg PUBLIC "-//W3C//DTD SVG 1.1//EN" "http://www.w3.org/Graphics/SVG/1.1/DTD/svg11.dtd" >
<svg xmlns="http://www.w3.org/2000/svg" xmlns:xlink="http://www.w3.org/1999/xlink" version="1.1">
<metadata>
Created by FontForge 20180930 at Mon Oct  8 19:30:24 2018
 By root
Copyright (c) 2014 by Arwan Sutanto. All rights reserved.
</metadata>
<defs>
<font id="Fonarto" horiz-adv-x="616" >
  <font-face 
    font-family="Fonarto"
    font-weight="400"
    font-stretch="normal"
    units-per-em="1000"
    panose-1="0 0 0 0 0 0 0 0 0 0"
    ascent="750"
    descent="-250"
    x-height="517"
    cap-height="700"
    bbox="-76 -206 1229 966"
    underline-thickness="50"
    underline-position="-100"
    stemh="131"
    stemv="133"
    unicode-range="U+0020-2122"
  />
    <missing-glyph />
    <glyph glyph-name="space" unicode=" " horiz-adv-x="250" 
 />
    <glyph glyph-name="E" unicode="E" horiz-adv-x="503" 
d="M453 700v-131h-270v-155h270c-3 -62 -29 -128 -110 -128h-160v-155h270v-131h-403v579c0 77 49 121 115 121h288z" />
    <glyph glyph-name="F" unicode="F" horiz-adv-x="503" 
d="M453 700v-131h-271v-155h271c-3 -62 -29 -128 -111 -128h-160v-286h-132v582c0 72 28 118 111 118h292z" />
    <glyph glyph-name="G" unicode="G" horiz-adv-x="796" 
d="M663 450c-39 124 -289 195 -420 66c-147 -145 -48 -405 180 -405c90 0 158 38 183 119h-185c-70 0 -106 63 -101 124h434c22 -242 -168 -373 -348 -371c-123 2 -248 62 -316 182c-79 139 -60 301 29 413c64 81 166 136 295 136c191 0 370 -118 249 -264z" />
    <glyph glyph-name="H" unicode="H" horiz-adv-x="604" 
d="M185 700v-286h234v286h135v-700h-135v286h-133c-46 0 -92 19 -101 77v-363h-135v593c0 75 66 108 135 107z" />
    <glyph glyph-name="I" unicode="I" horiz-adv-x="252" 
d="M192 0h-132v595c0 66 52 106 132 105v-700z" />
    <glyph glyph-name="J" unicode="J" horiz-adv-x="449" 
d="M389 240c0 -104 -5 -179 -74 -225c-27 -17 -59 -26 -96 -26c-181 0 -206 163 -125 210c12 -49 50 -73 83 -80c78 -16 80 28 80 96v381c0 65 52 105 132 104v-460z" />
    <glyph glyph-name="K" unicode="K" horiz-adv-x="588" 
d="M194 458l138 177c52 75 117 87 212 66l-129 -165l-116 -148l269 -388h-158l-216 312v-312h-135v701h135v-243z" />
    <glyph glyph-name="L" unicode="L" horiz-adv-x="481" 
d="M191 127h240v-127h-372v595c0 66 52 106 132 105v-573z" />
    <glyph glyph-name="M" unicode="M" horiz-adv-x="775" 
d="M223 701l163 -489l164 489h42h1h132v-700h-133v440l-109 -324c-13 -39 -23 -86 8 -108c-36 -19 -85 -18 -113 -7c-49 19 -75 70 -90 115l-105 315v-431h-133v595c0 65 44 105 114 105h59z" />
    <glyph glyph-name="N" unicode="N" horiz-adv-x="660" 
d="M50 594c0 56 34 106 104 106h22l302 -461v461h132v-700h-127l-301 459v-459h-132v594z" />
    <glyph glyph-name="O" unicode="O" horiz-adv-x="781" 
d="M392 713c98 0 183 -36 253 -107c71 -71 106 -158 106 -260c0 -101 -34 -187 -104 -257s-154 -105 -254 -105c-104 0 -191 36 -260 108s-103 158 -103 257c0 39 7 99 27 138c65 130 305 104 263 -58c-51 61 -161 33 -156 -98c3 -70 30 -125 82 -167c42 -35 91 -53 147 -53
c62 0 115 23 159 68c44 46 66 101 66 168c0 66 -22 122 -66 168c-45 45 -98 68 -162 68c-29 0 -55 -4 -80 -13c-48 44 -137 47 -201 7c28 35 62 64 101 87c57 33 117 49 182 49z" />
    <glyph glyph-name="P" unicode="P" horiz-adv-x="571" 
d="M160 700h154c325 0 279 -491 -1 -491c-141 0 -143 106 -106 158c14 -28 83 -32 113 -27c108 20 128 230 -25 230h-113v-570h-132v577c0 73 30 123 110 123z" />
    <glyph glyph-name="R" unicode="R" horiz-adv-x="614" 
d="M161 700h153c294 0 285 -399 75 -478l175 -222h-163l-194 246c-29 37 -23 88 0 121c14 -28 83 -32 114 -27c108 20 128 230 -25 230h-113v-570h-133v577c0 73 30 123 111 123z" />
    <glyph glyph-name="S" unicode="S" horiz-adv-x="547" 
d="M445 504c-76 150 -254 77 -199 5c50 -64 205 -155 248 -248c54 -121 -19 -279 -198 -279c-106 0 -210 70 -261 170l105 77c24 -50 79 -101 125 -114c81 -22 151 38 90 115c-66 84 -251 171 -251 308c0 105 91 177 193 177c64 0 122 -19 157 -52c50 -46 57 -115 -9 -159z
" />
    <glyph glyph-name="T" unicode="T" horiz-adv-x="569" 
d="M50 700h479c0 -82 -51 -132 -109 -132h-80v-568h-135v568h-155v132z" />
    <glyph glyph-name="V" unicode="V" horiz-adv-x="676" 
d="M25 698h136l175 -496l135 374c37 103 98 133 180 122l-252 -698h-128z" />
    <glyph glyph-name="W" unicode="W" horiz-adv-x="880" 
d="M35 698h131l101 -446l91 325c22 78 64 127 144 121l127 -446l73 326c20 86 66 132 158 120l-159 -698h-127l-128 451l-126 -451h-126z" />
    <glyph glyph-name="Q" unicode="Q" horiz-adv-x="806" 
d="M672 103l79 -102h-159l-18 23c-135 -72 -317 -49 -429 68c-227 237 -59 622 259 622c314 0 476 -380 268 -611v0zM589 210c105 158 1 374 -186 374c-231 0 -301 -294 -146 -420c68 -55 158 -67 236 -35c-42 54 -95 130 -160 85c-9 76 42 105 83 112c49 8 107 -23 147 -79
z" />
    <glyph glyph-name="U" unicode="U" horiz-adv-x="598" 
d="M50 700h133v-436c0 -88 27 -149 112 -149c86 0 121 56 121 152v312c0 73 28 124 132 121v-414c0 -174 -51 -298 -252 -298s-246 123 -246 298v414z" />
    <glyph glyph-name="X" unicode="X" horiz-adv-x="693" 
d="M49 699h151l147 -224l91 139c53 80 98 113 207 85l-223 -340l236 -359h-152l-159 244l-160 -244h-152l236 359z" />
    <glyph glyph-name="Y" unicode="Y" horiz-adv-x="560" 
d="M248 -9c-130 0 -228 68 -189 204c31 -58 110 -88 176 -85c94 3 147 47 147 143c-19 -49 -97 -73 -145 -76c-50 -3 -101 12 -141 53c-30 30 -44 74 -44 133v337h126c0 -66 -5 -296 8 -343c11 -41 43 -64 77 -63c45 0 84 31 83 70c18 -5 29 -18 36 -35v371h128v-453
c0 -156 -90 -256 -262 -256z" />
    <glyph glyph-name="Z" unicode="Z" horiz-adv-x="608" 
d="M206 700h352l-287 -571h270v-129h-494l292 568h-122c-59 0 -97 3 -130 -50c-73 108 17 182 119 182z" />
    <glyph glyph-name="a" unicode="a" 
d="M436 0v57c-151 -150 -406 -48 -406 203c0 161 122 276 253 271c128 -5 149 -119 125 -162c-22 33 -70 42 -108 42c-185 0 -189 -305 0 -305c106 0 136 106 136 199v158v55h130v-518h-130z" />
    <glyph glyph-name="b" unicode="b" horiz-adv-x="613" 
d="M176 0h-126v597c0 54 48 101 126 103v-403c0 -91 30 -194 134 -194c184 0 180 298 -1 298c-36 0 -83 -9 -105 -41c-23 42 -10 153 122 158c128 4 247 -108 247 -265c0 -244 -249 -344 -397 -198v-55z" />
    <glyph glyph-name="c" unicode="c" horiz-adv-x="550" 
d="M453 326c-31 111 -262 125 -297 -32c-19 -85 28 -185 143 -185c54 0 96 20 126 59l95 -69c-51 -72 -124 -107 -219 -107c-300 0 -358 377 -138 502c54 31 119 42 181 33c166 -24 176 -169 109 -201z" />
    <glyph glyph-name="d" unicode="d" horiz-adv-x="601" 
d="M425 1v55c-147 -146 -395 -46 -395 197c0 157 119 269 246 264c133 -5 145 -115 122 -157c-22 32 -69 41 -105 41c-181 0 -184 -297 -1 -297c103 0 133 103 133 194v401c78 -2 126 -49 126 -102v-596h-126z" />
    <glyph glyph-name="e" unicode="e" horiz-adv-x="570" 
d="M403 200c-144 -36 -244 26 -204 125c41 -35 101 -32 151 -27c127 11 63 133 -44 127c-76 -4 -144 -68 -146 -158c-2 -75 42 -150 113 -162c51 -9 108 7 149 49l105 -51c-54 -81 -129 -114 -225 -114c-268 0 -338 311 -192 464c53 57 129 79 203 79
c247 0 301 -280 90 -332z" />
    <glyph glyph-name="f" unicode="f" horiz-adv-x="378" 
d="M50 519h46c0 70 -5 136 27 175c18 22 49 36 99 38c110 3 191 -71 117 -153c-19 54 -113 66 -113 0v-60h128c0 -66 -43 -111 -98 -111h-30v-408h-130v408h-46v111z" />
    <glyph glyph-name="g" unicode="g" 
d="M301 -201c-132 0 -262 62 -222 200c43 -48 142 -82 208 -80c123 5 149 74 149 149c-151 -150 -406 -47 -406 203c0 161 122 265 253 260c128 -5 149 -118 125 -162c-23 33 -71 43 -108 43c-185 0 -189 -294 0 -294c106 0 136 94 136 187v158v55h130v-460
c0 -158 -91 -259 -265 -259z" />
    <glyph glyph-name="h" unicode="h" horiz-adv-x="547" 
d="M176 700v-253c21 46 91 68 138 71c49 3 99 -12 139 -53c29 -30 44 -74 44 -132v-333h-125c0 65 5 293 -8 340c-11 40 -42 62 -76 62c-45 0 -71 -26 -71 -65c-15 4 -34 23 -41 41v-378h-126v598c0 64 49 103 126 102z" />
    <glyph glyph-name="i" unicode="i" horiz-adv-x="268" 
d="M70 413c5 81 58 104 129 105v-518h-129v413v0zM135 731c23 0 42 -8 58 -25c17 -16 25 -36 25 -59c0 -24 -8 -43 -24 -60c-36 -36 -108 -23 -125 -68c-12 42 -37 144 7 188c16 16 36 24 59 24z" />
    <glyph glyph-name="j" unicode="j" horiz-adv-x="265" 
d="M202 -20c0 -49 -5 -86 -14 -110c-21 -53 -68 -76 -123 -76c-89 0 -154 72 -110 137c23 -24 78 -46 104 -15c9 10 13 28 13 55c0 146 -1 293 -1 440c6 82 59 104 131 106v-537v0zM137 730c23 0 42 -8 59 -25c16 -16 24 -36 24 -60c0 -23 -8 -43 -24 -59
c-36 -36 -108 -24 -125 -69c-12 42 -37 144 7 189c16 16 36 24 59 24z" />
    <glyph glyph-name="k" unicode="k" horiz-adv-x="559" 
d="M177 297l109 121c44 49 82 82 142 86s111 -25 87 -91c-10 18 -60 18 -104 -32l-106 -117l244 -264h-158l-214 233v-233h-127v598c0 64 50 103 127 102v-403z" />
    <glyph glyph-name="l" unicode="l" horiz-adv-x="226" 
d="M176 700v-700h-126v598c0 64 49 103 126 102z" />
    <glyph glyph-name="m" unicode="m" horiz-adv-x="883" 
d="M180 458c21 47 93 69 140 72c51 4 103 -12 143 -53c12 -13 22 -27 29 -44c9 58 87 94 150 97c52 4 104 -12 146 -53c30 -31 45 -76 45 -135v-342h-130c0 67 0 299 -8 348c-7 42 -32 66 -73 68c-46 1 -82 -31 -81 -71c-12 4 -25 15 -34 28c1 -10 1 -20 1 -31v-342h-128
c0 67 5 300 -8 348c-11 42 -43 64 -78 64c-46 0 -73 -27 -73 -67c-16 5 -34 24 -41 43v-388h-130v517h130v-59z" />
    <glyph glyph-name="n" unicode="n" horiz-adv-x="558" 
d="M179 458c22 47 93 70 141 73c51 3 102 -13 143 -54c30 -31 45 -76 45 -135v-342h-128c0 67 5 300 -8 348c-11 42 -44 64 -79 64c-45 0 -72 -27 -72 -67c-16 5 -34 24 -42 43v-27v-361h-129v518h129v-60z" />
    <glyph glyph-name="o" unicode="o" horiz-adv-x="606" 
d="M301 530c210 0 343 -224 238 -407c-87 -153 -301 -184 -428 -57c-72 73 -97 176 -69 271c36 117 230 108 242 -5c-41 29 -122 3 -123 -75c1 -200 283 -198 283 2c0 103 -79 165 -172 146c-39 47 -122 59 -180 24c53 64 126 101 209 101z" />
    <glyph glyph-name="p" unicode="p" horiz-adv-x="612" 
d="M179 517v-56c150 149 403 47 403 -202c0 -159 -122 -273 -251 -269c-134 5 -148 118 -125 161c23 -33 71 -42 108 -42c184 0 187 303 0 303c-105 0 -135 -105 -135 -198v-409h-129v608c0 69 61 108 129 104z" />
    <glyph glyph-name="q" unicode="q" horiz-adv-x="611" 
d="M433 517h128v-607c0 -54 -49 -102 -128 -104v409c0 92 -31 197 -136 197c-186 0 -183 -303 1 -303c37 0 84 9 107 42c23 -43 9 -155 -124 -160c-130 -4 -251 109 -251 269c0 248 253 349 403 201v56z" />
    <glyph glyph-name="r" unicode="r" horiz-adv-x="426" 
d="M50 520h112v-66c22 46 59 76 102 78c111 7 141 -115 83 -158c-24 66 -155 40 -165 -73c-2 -32 -2 -65 -2 -91v-210h-130v520z" />
    <glyph glyph-name="s" unicode="s" horiz-adv-x="425" 
d="M307 359c-20 50 -84 61 -110 51c-24 -8 -33 -31 -18 -48c36 -41 216 -65 216 -212c0 -172 -252 -220 -365 -71l80 86c102 -119 243 -28 108 39c-86 43 -169 86 -169 179c0 95 87 151 178 147c154 -8 157 -139 80 -171z" />
    <glyph glyph-name="t" unicode="t" horiz-adv-x="376" 
d="M104 598c0 74 61 103 126 102v-186h116c0 -52 -16 -108 -88 -108h-28v-283c0 -42 76 -33 95 -2c51 -132 -221 -183 -221 -14v299h-64v108h64v84z" />
    <glyph glyph-name="u" unicode="u" horiz-adv-x="554" 
d="M181 517v-248c0 -48 -2 -113 42 -144c30 -21 79 -21 110 0c45 30 41 92 41 140v149c-1 71 52 107 129 105v-220c1 -90 -7 -151 -21 -185c-38 -89 -112 -125 -206 -125c-102 0 -179 43 -211 143c-9 30 -15 87 -15 149v236h131z" />
    <glyph glyph-name="v" unicode="v" horiz-adv-x="577" 
d="M20 517h133l130 -305l98 226c27 60 78 102 166 83l-223 -521h-83z" />
    <glyph glyph-name="w" unicode="w" horiz-adv-x="823" 
d="M30 517h126l105 -295l85 222c23 63 63 76 106 73l110 -291l79 221c29 79 97 88 152 70l-187 -518h-83l-111 295l-114 -295h-82z" />
    <glyph glyph-name="x" unicode="x" horiz-adv-x="615" 
d="M54 517h151l102 -141l69 95c44 61 110 64 182 46l-176 -243l198 -274h-151l-123 169l-122 -169h-149l197 272z" />
    <glyph glyph-name="y" unicode="y" horiz-adv-x="547" 
d="M234 -194c-131 0 -230 69 -190 206c31 -59 110 -89 176 -87c95 4 148 48 148 145c-18 -50 -98 -74 -145 -77c-51 -3 -102 12 -142 53c-30 31 -45 75 -45 134v339h127c0 -67 -5 -297 8 -345c11 -42 43 -64 78 -64c45 0 84 32 84 71c17 -5 29 -18 35 -35v373h129v-456
c0 -157 -90 -257 -263 -257z" />
    <glyph glyph-name="z" unicode="z" horiz-adv-x="533" 
d="M178 518h305l-233 -408h219v-110h-419l233 408h-82c-39 0 -100 -6 -107 -49c-53 49 -47 159 84 159z" />
    <glyph glyph-name="one" unicode="1" horiz-adv-x="355" 
d="M182 700h123v-700h-132v575h-131c-11 73 39 125 140 125z" />
    <glyph glyph-name="two" unicode="2" horiz-adv-x="582" 
d="M191 453c-103 -19 -151 87 -103 168c63 108 242 113 331 64c64 -35 107 -108 107 -179c0 -148 -134 -270 -242 -384h248v-122h-482c0 55 37 102 120 185c79 79 173 176 198 224c68 126 -27 194 -108 178c-47 -9 -107 -73 -69 -134z" />
    <glyph glyph-name="three" unicode="3" horiz-adv-x="574" 
d="M156 486c-129 19 -132 202 75 227c113 14 252 -37 262 -167c5 -59 -26 -117 -97 -152c206 -65 158 -408 -112 -408c-138 0 -227 89 -234 227h130c25 -160 215 -123 218 -4c2 112 -178 151 -210 79c-62 52 -42 129 46 141c57 7 125 30 125 93c0 37 -38 71 -109 71
c-70 0 -116 -52 -94 -107z" />
    <glyph glyph-name="four" unicode="4" horiz-adv-x="585" 
d="M346 697c81 15 128 -24 128 -114v-325h61v-119h-61v-139h-127v139h-297v119l296 439v0zM347 258v229l-155 -229h155z" />
    <glyph glyph-name="five" unicode="5" horiz-adv-x="553" 
d="M167 700h326c3 -69 -28 -122 -97 -122h-130l-29 -129c143 36 266 -56 266 -223c0 -193 -188 -278 -330 -226c-171 64 -152 249 -14 233c-23 -62 28 -114 92 -123c59 -9 122 34 122 112c0 122 -143 146 -188 72l-89 84z" />
    <glyph glyph-name="six" unicode="6" horiz-adv-x="530" 
d="M278 701c70 -7 102 -68 72 -127l-159 -321c-20 -39 -27 -119 56 -142c49 -14 103 28 103 91c0 58 -60 99 -116 77c-21 80 130 159 214 33c50 -77 41 -189 -33 -262c-156 -155 -419 -1 -355 212c15 53 183 371 218 439z" />
    <glyph glyph-name="seven" unicode="7" horiz-adv-x="560" 
d="M51 700h459v-70l-307 -630h-139l281 575h-180c-78 0 -118 41 -114 125z" />
    <glyph glyph-name="eight" unicode="8" horiz-adv-x="558" 
d="M279 711c107 0 194 -87 194 -195c0 -48 -18 -93 -47 -127c50 -42 82 -105 82 -176c0 -127 -103 -229 -229 -229c-127 0 -229 102 -229 229c0 71 32 134 82 176c-30 34 -48 79 -48 127c0 108 87 195 195 195v0zM279 315c-57 0 -103 -46 -103 -102c0 -57 46 -103 103 -103
c56 0 102 46 102 103c0 56 -46 102 -102 102v0zM279 593c-42 0 -77 -34 -77 -77c0 -42 35 -76 77 -76s77 34 77 76c0 43 -35 77 -77 77z" />
    <glyph glyph-name="nine" unicode="9" horiz-adv-x="534" 
d="M254 -4c-70 7 -102 68 -73 128l161 324c20 40 27 120 -56 144c-50 14 -104 -29 -104 -92c0 -60 60 -101 117 -78c21 -81 -132 -161 -216 -34c-51 78 -42 191 33 265c157 156 422 1 358 -214c-15 -53 -185 -374 -220 -443z" />
    <glyph glyph-name="zero" unicode="0" horiz-adv-x="588" 
d="M292 713c202 0 246 -183 246 -364c0 -182 -42 -365 -243 -365c-200 0 -245 176 -245 358c0 127 20 220 59 277c44 63 105 94 183 94v0zM296 588c-109 0 -113 -154 -113 -249c0 -105 16 -231 113 -231c95 0 110 137 110 240c0 106 -14 240 -110 240z" />
    <glyph glyph-name="exclam" unicode="!" horiz-adv-x="262" 
d="M68 299v0v401h126v-503c-69 1 -121 23 -126 102zM132 -10c-23 0 -42 8 -57 23c-43 43 -19 142 -8 183c17 -44 87 -32 122 -67c15 -16 23 -35 23 -57c0 -23 -8 -42 -24 -58c-15 -16 -34 -24 -56 -24z" />
    <glyph glyph-name="quotedbl" unicode="&#x22;" horiz-adv-x="383" 
d="M144 517c-3 -31 -37 -51 -78 -52l-13 125c-10 82 3 115 111 108l-20 -181v0zM313 517c-3 -31 -37 -51 -78 -52l-14 125c-9 82 4 115 112 108z" />
    <glyph glyph-name="numbersign" unicode="#" horiz-adv-x="599" 
d="M459 222h-38l-25 -170c-7 -49 -52 -52 -101 -52l33 222h-89l-32 -222h-93l33 222h-107l13 92h108l13 87h-109c3 46 28 92 76 92h46l22 149c7 46 43 64 100 56l-29 -205h88l30 205h93l-30 -205h98l-13 -92h-99l-12 -87h99c-7 -53 -34 -92 -75 -92v0zM354 401h-88l-13 -87
h88z" />
    <glyph glyph-name="dollar" unicode="$" horiz-adv-x="543" 
d="M490 265c51 -111 -9 -254 -158 -274v-65h-79v65c-90 16 -173 79 -217 166l104 75c23 -49 79 -100 124 -112c80 -22 149 38 89 114c-66 83 -249 170 -249 306c0 88 67 153 149 170v54h79v-52c49 -6 92 -23 120 -48c49 -46 55 -115 -10 -159c-75 149 -252 77 -197 5
c49 -63 204 -153 245 -245z" />
    <glyph glyph-name="percent" unicode="%" horiz-adv-x="786" 
d="M541 652c28 44 75 53 127 46l-425 -654c-28 -44 -77 -46 -125 -43zM333 549c0 -83 -67 -149 -149 -149s-149 66 -149 149c0 82 67 149 149 149s149 -67 149 -149zM108 549c0 -42 34 -76 76 -76s76 34 76 76c0 41 -34 75 -76 75s-76 -34 -76 -75zM602 299
c82 0 149 -67 149 -149c0 -83 -67 -149 -149 -149s-149 66 -149 149c0 82 67 149 149 149zM602 74c42 0 75 34 75 76c0 41 -33 75 -75 75s-76 -34 -76 -75c0 -42 34 -76 76 -76z" />
    <glyph glyph-name="ampersand" unicode="&#x26;" horiz-adv-x="677" 
d="M378 458c21 53 -4 110 -72 110c-69 0 -105 -33 -105 -69c0 -61 65 -83 120 -90c86 -12 139 -105 78 -156c-49 103 -238 51 -236 -57c2 -60 52 -99 103 -100c87 -2 136 106 184 190c50 85 160 92 187 3c-74 -15 -87 -104 -182 -224c-41 -53 -102 -85 -182 -85
c-262 0 -308 333 -108 395c-69 34 -99 90 -95 148c11 125 145 174 255 161c200 -24 160 -216 53 -226z" />
    <glyph glyph-name="quotesingle" unicode="'" horiz-adv-x="226" 
d="M147 533c-3 -29 -33 -47 -71 -48l-13 115c-8 76 4 106 103 100z" />
    <glyph glyph-name="parenleft" unicode="(" horiz-adv-x="384" 
d="M334 698c-212 -241 -196 -594 0 -838c-109 0 -152 5 -189 75c-114 218 -112 488 6 703c38 70 105 63 183 60z" />
    <glyph glyph-name="parenright" unicode=")" horiz-adv-x="385" 
d="M50 698c79 3 146 10 184 -60c118 -215 120 -485 6 -703c-37 -70 -80 -75 -190 -75c197 244 213 597 0 838z" />
    <glyph glyph-name="asterisk" unicode="*" horiz-adv-x="448" 
d="M194 626c0 56 22 75 60 72v-121l42 25c48 27 76 18 92 -16l-105 -61l43 -24c48 -28 54 -57 32 -88l-104 61v-50c0 -55 -23 -74 -60 -71v121l-43 -25c-48 -28 -75 -18 -91 16l104 60l-42 25c-48 28 -54 56 -33 87l105 -60v49z" />
    <glyph glyph-name="plus" unicode="+" horiz-adv-x="550" 
d="M222 498c0 56 39 75 106 72v-161h89c56 0 75 -39 72 -106h-161v-89c0 -56 -39 -75 -106 -72v161h-89c-56 0 -75 39 -72 106h161v89z" />
    <glyph glyph-name="comma" unicode="," horiz-adv-x="305" 
d="M146 -24c-17 -23 -53 -24 -86 -6l47 106c30 70 56 90 138 35z" />
    <glyph glyph-name="hyphen" unicode="-" horiz-adv-x="402" 
d="M252 308c61 0 82 -43 79 -116h-181c-61 0 -82 43 -79 116h181z" />
    <glyph glyph-name="at" unicode="@" horiz-adv-x="807" 
d="M566 268c-17 -105 118 0 115 121c-3 139 -88 224 -195 251c-122 30 -268 -15 -337 -137c-105 -187 2 -453 270 -453c77 0 135 30 195 84h90c-81 -100 -160 -154 -293 -154c-291 0 -461 308 -321 555c115 203 398 242 559 92c152 -143 121 -374 -55 -463
c-13 -6 -36 -15 -61 -19c-55 -9 -82 -7 -73 49c-127 -109 -300 -35 -272 147c18 117 120 200 214 197c92 -4 95 -86 73 -118c-13 24 -47 31 -74 31c-135 0 -171 -221 -35 -221c77 0 111 76 122 144l24 154h94z" />
    <glyph glyph-name="question" unicode="?" horiz-adv-x="566" 
d="M173 456c-102 -19 -140 86 -93 167c63 108 229 109 321 64c63 -32 118 -93 101 -188c-28 -151 -178 -167 -165 -312c-95 -3 -125 45 -125 87c1 75 48 100 103 162c83 91 45 142 -15 156c-89 20 -175 -60 -127 -136v0zM273 -23c-23 0 -42 8 -58 24c-44 44 -19 144 -7 186
c17 -44 88 -32 123 -68c50 -51 16 -142 -58 -142z" />
    <glyph glyph-name="greater" unicode="&#x3e;" horiz-adv-x="595" 
d="M61 513v118l404 -206c54 -28 80 -74 66 -138l-470 -240c-5 69 15 126 58 148l277 144z" />
    <glyph glyph-name="equal" unicode="=" horiz-adv-x="533" 
d="M400 469c48 0 64 -34 62 -92h-329c-48 0 -65 34 -62 92h329zM400 306c48 0 64 -34 62 -92h-329c-48 0 -65 34 -62 92h329z" />
    <glyph glyph-name="less" unicode="&#x3c;" horiz-adv-x="595" 
d="M534 165v-118l-404 206c-54 28 -80 74 -66 138l470 240c5 -69 -15 -126 -58 -148l-277 -144z" />
    <glyph glyph-name="semicolon" unicode=";" horiz-adv-x="345" 
d="M162 517c21 0 38 -7 52 -22c15 -14 22 -32 22 -52c0 -21 -7 -38 -22 -52c-14 -14 -31 -22 -52 -22c-20 0 -38 8 -52 22s-22 31 -22 52c0 20 8 38 22 52c14 15 32 22 52 22v0zM155 -84c-18 -26 -58 -26 -95 -6l52 116c34 77 62 100 153 39z" />
    <glyph glyph-name="colon" unicode=":" horiz-adv-x="340" 
d="M167 517c20 0 37 -7 52 -22c14 -14 21 -32 21 -52s-7 -37 -21 -52c-15 -14 -32 -22 -52 -22c-21 0 -38 8 -53 22c-14 14 -21 31 -21 52c0 20 7 38 21 52c15 15 32 22 53 22v0zM167 128c20 0 37 -7 52 -22c14 -14 21 -31 21 -52c0 -20 -7 -38 -21 -52
c-15 -15 -32 -22 -52 -22c-21 0 -38 7 -53 22c-14 14 -21 32 -21 52c0 21 7 38 21 52c15 15 32 22 53 22z" />
    <glyph glyph-name="slash" unicode="/" horiz-adv-x="482" 
d="M50 -131l293 787c17 46 60 53 109 49l-296 -793c-15 -42 -60 -48 -106 -43z" />
    <glyph glyph-name="period" unicode="." horiz-adv-x="317" 
d="M153 128c21 0 38 -7 52 -22c15 -14 22 -31 22 -52c0 -20 -7 -38 -22 -52c-14 -15 -31 -22 -52 -22c-20 0 -37 7 -52 22c-14 14 -21 32 -21 52c0 21 7 38 21 52c15 15 32 22 52 22z" />
    <glyph glyph-name="braceright" unicode="}" horiz-adv-x="502" 
d="M416 319h35c5 -71 -18 -101 -73 -116c-21 -5 -26 -12 -36 -25c-22 -28 -24 -71 -24 -128c0 -106 -8 -164 -56 -193c-31 -20 -68 -27 -143 -27h-58c-3 59 23 108 72 109c40 0 37 1 50 11c25 18 13 65 22 181c4 61 27 100 79 134c-52 34 -75 73 -79 133
c-9 116 3 163 -22 181c-13 10 -10 12 -50 12c-49 0 -75 50 -72 108h58c75 0 112 -7 143 -26c48 -30 56 -88 56 -193c0 -97 7 -157 98 -161z" />
    <glyph glyph-name="bar" unicode="|" horiz-adv-x="245" 
d="M85 647c0 31 37 56 75 51v-808c0 -31 -38 -55 -75 -51v808z" />
    <glyph glyph-name="braceleft" unicode="{" horiz-adv-x="505" 
d="M89 210h-35c-4 71 19 101 74 116c21 6 26 12 36 26c21 27 24 71 24 128c0 105 8 163 56 193c31 19 68 26 142 26h58c4 -58 -22 -108 -71 -108c-40 0 -38 -2 -50 -12c-25 -18 -13 -65 -22 -181c-5 -60 -28 -99 -80 -133c52 -34 75 -73 80 -134c9 -116 -3 -163 22 -181
c12 -10 10 -11 50 -11c49 -1 75 -50 71 -109h-58c-74 0 -111 7 -142 27c-48 29 -56 87 -56 193c0 96 -8 156 -99 160z" />
    <glyph glyph-name="grave" unicode="`" horiz-adv-x="371" 
d="M199 608l-127 143c75 53 109 37 153 -37l66 -112c-32 -19 -70 -18 -92 6z" />
    <glyph glyph-name="underscore" unicode="_" horiz-adv-x="572" 
d="M98 -51h425c-5 -30 -21 -47 -54 -47h-419c2 22 20 47 48 47z" />
    <glyph glyph-name="asciicircum" unicode="^" horiz-adv-x="568" 
d="M165 201h-110l155 431c19 53 70 73 126 67l177 -498c-54 -5 -113 10 -128 52l-101 284z" />
    <glyph glyph-name="bracketright" unicode="]" horiz-adv-x="318" 
d="M258 -40c0 -72 -47 -121 -122 -121h-76v114h73v630h-73v115h198v-738z" />
    <glyph glyph-name="backslash" unicode="\" horiz-adv-x="506" 
d="M439 -102c-44 -4 -87 1 -102 41l-284 761c47 4 89 -3 105 -47z" />
    <glyph glyph-name="bracketleft" unicode="[" horiz-adv-x="318" 
d="M60 577c0 71 47 121 122 121h76v-115h-73v-630h73v-114h-198v738z" />
    <glyph glyph-name="asciitilde" unicode="~" horiz-adv-x="668" 
d="M92 268c-48 34 -64 106 6 153c86 59 189 24 274 -17c60 -29 173 -57 205 26c38 -19 69 -95 0 -152c-110 -90 -292 41 -373 43c-45 1 -89 -10 -112 -53z" />
    <glyph glyph-name="Euro" unicode="&#x20ac;" horiz-adv-x="617" 
d="M256 242c54 -118 192 -158 311 -111v-133c-104 -30 -233 -7 -321 55c-63 45 -106 108 -129 189h-67l18 77h36v60h-54l19 77h49c58 198 269 296 449 242l-29 -124c-111 36 -230 -14 -281 -118h253c-7 -46 -30 -77 -78 -77h-197v-60h243c-10 -53 -36 -78 -76 -77h-146z" />
    <glyph glyph-name="quotesinglbase" unicode="&#x201a;" horiz-adv-x="295" 
d="M115 137c41 20 93 -1 106 -45c9 -31 2 -69 -13 -105c-21 -46 -56 -88 -93 -103c33 99 -26 113 -41 158c-13 41 9 79 41 95z" />
    <glyph glyph-name="florin" unicode="&#x192;" horiz-adv-x="565" 
d="M520 686l-16 -112c-26 18 -48 27 -66 27c-13 0 -23 -5 -31 -16c-7 -10 -14 -35 -19 -72l-10 -71h105l-15 -110h-106l-51 -355c-6 -46 -16 -80 -28 -103s-28 -40 -48 -52c-20 -13 -41 -19 -64 -19c-18 0 -37 3 -56 9s-42 17 -70 34l16 113c30 -23 55 -34 75 -34
c13 0 22 4 29 13s13 30 17 62l49 332h-105l16 110h105l16 117c8 59 23 101 45 127c22 25 54 38 95 38c20 0 39 -2 55 -7c17 -5 38 -16 62 -31z" />
    <glyph glyph-name="quotedblbase" unicode="&#x201e;" horiz-adv-x="462" 
d="M105 137c41 20 93 -1 106 -45c9 -31 2 -69 -13 -105c-21 -46 -56 -88 -93 -103c33 99 -27 113 -41 158c-13 41 8 79 41 95zM398 92c9 -31 2 -69 -14 -105c-20 -46 -55 -88 -92 -103c33 99 -27 113 -41 158c-14 41 8 79 41 95c41 20 93 -1 106 -45z" />
    <glyph glyph-name="ellipsis" unicode="&#x2026;" horiz-adv-x="889" 
d="M445 138c98 0 97 -148 0 -148s-98 148 0 148v0zM124 138c98 0 97 -148 0 -148s-98 148 0 148v0zM766 138c97 0 97 -148 0 -148s-98 148 0 148z" />
    <glyph glyph-name="circumflex" unicode="&#x2c6;" horiz-adv-x="485" 
d="M50 608l97 91c26 25 54 43 97 42h50l141 -133h-133l-58 61l-60 -61h-134z" />
    <glyph glyph-name="perthousand" unicode="&#x2030;" horiz-adv-x="1279" 
d="M609 680c31 49 82 59 140 50l-469 -721c-32 -50 -86 -51 -139 -48zM1064 290c91 0 165 -74 165 -165s-74 -164 -165 -164c-90 0 -164 73 -164 164s74 165 164 165zM1064 41c47 0 84 38 84 84s-37 84 -84 84c-46 0 -83 -38 -83 -84s37 -84 83 -84zM379 566
c0 -91 -74 -165 -165 -165s-164 74 -164 165s73 164 164 164s165 -73 165 -164zM130 566c0 -46 38 -84 84 -84s84 38 84 84s-38 83 -84 83s-84 -37 -84 -83zM676 290c91 0 164 -74 164 -165s-73 -164 -164 -164s-165 73 -165 164s74 165 165 165zM676 41c46 0 83 38 83 84
s-37 84 -83 84s-84 -38 -84 -84s38 -84 84 -84z" />
    <glyph glyph-name="Scaron" unicode="&#x160;" horiz-adv-x="578" 
d="M461 499v0c66 45 60 114 10 161c-35 32 -94 51 -158 51c-103 0 -193 -72 -193 -177c0 -138 185 -226 251 -309c61 -77 -9 -138 -90 -115c-46 12 -102 64 -126 113l-105 -77c52 -100 155 -170 262 -170c179 0 253 158 198 280c-42 93 -198 184 -248 248
c-56 73 123 146 199 -5zM125 892h135l61 -62l59 62h134l-142 -135h-51c-44 -1 -72 18 -99 43z" />
    <glyph glyph-name="guilsinglleft" unicode="&#x2039;" horiz-adv-x="348" 
d="M137 456c15 43 70 73 141 61l-87 -261v0v0l87 -261c-71 -11 -126 18 -141 61l-67 200z" />
    <glyph glyph-name="OE" unicode="&#x152;" horiz-adv-x="1098" 
d="M400 717c93 0 173 -31 241 -94c16 49 57 76 109 76h288v-130h-271v-155h271c-3 -63 -29 -129 -111 -129h-160v-155h271v-131h-403v68c-66 -57 -144 -85 -234 -85c-105 0 -192 36 -261 109c-70 72 -105 159 -105 259c0 40 8 100 28 139c65 132 307 105 265 -58
c-52 61 -163 33 -158 -99c4 -70 31 -127 83 -169c43 -35 92 -52 148 -52c63 0 116 22 161 68c44 46 66 102 66 169s-22 123 -67 169c-44 46 -99 69 -163 69c-29 0 -55 -4 -80 -13c-49 44 -138 47 -203 7c28 35 62 64 102 88c57 33 118 49 183 49z" />
    <glyph glyph-name="Zcaron" unicode="&#x17d;" horiz-adv-x="584" 
d="M199 699v0c-102 0 -192 -74 -119 -182c33 53 72 51 130 51h122l-292 -569h494v129h-270l288 571h-353zM124 892h135l60 -62l59 62h135l-143 -135h-51c-43 -1 -71 18 -98 43z" />
    <glyph glyph-name="quoteleft" unicode="&#x2018;" horiz-adv-x="337" 
d="M201 432c-41 -20 -94 1 -107 46c-9 30 -2 69 14 106c20 46 56 89 93 104c-33 -100 27 -115 42 -160c13 -41 -9 -80 -42 -96z" />
    <glyph glyph-name="quoteright" unicode="&#x2019;" horiz-adv-x="338" 
d="M137 681c41 20 94 -1 107 -46c9 -31 2 -70 -14 -106c-20 -47 -56 -89 -94 -104c34 100 -26 115 -41 160c-14 41 9 80 42 96z" />
    <glyph glyph-name="quotedblleft" unicode="&#x201c;" horiz-adv-x="519" 
d="M201 459v0c-41 -20 -94 1 -107 45c-9 31 -2 70 13 107c21 46 57 89 94 104c-33 -100 27 -115 42 -160c13 -42 -9 -80 -42 -96zM383 459c-41 -20 -94 1 -107 45c-9 31 -2 70 14 107c20 46 56 89 93 104c-33 -100 27 -115 42 -160c13 -42 -9 -80 -42 -96z" />
    <glyph glyph-name="quotedblright" unicode="&#x201d;" horiz-adv-x="519" 
d="M318 708v0c41 19 94 -1 107 -46c9 -31 2 -70 -14 -106c-20 -47 -56 -89 -93 -105c33 101 -27 115 -42 161c-13 41 9 80 42 96zM136 708c41 19 94 -1 107 -46c9 -31 2 -70 -14 -106c-20 -47 -56 -89 -93 -105c33 101 -27 115 -42 161c-13 41 9 80 42 96z" />
    <glyph glyph-name="dieresis" unicode="&#xa8;" horiz-adv-x="465" 
d="M128 747c19 0 35 -7 48 -20s20 -29 20 -48s-7 -35 -20 -48s-29 -20 -48 -20s-35 7 -48 20s-20 29 -20 48s7 35 20 48s29 20 48 20v0zM337 747c19 0 35 -7 48 -20c14 -13 20 -29 20 -48s-6 -35 -20 -48c-13 -13 -29 -20 -48 -20s-34 7 -48 20c-13 13 -20 29 -20 48
s7 35 20 48c14 13 29 20 48 20z" />
    <glyph glyph-name="bullet" unicode="&#x2022;" horiz-adv-x="514" 
d="M256 500c131 0 196 -158 104 -249c-93 -93 -250 -27 -250 103c0 81 65 146 146 146z" />
    <glyph glyph-name="tilde" unicode="&#x2dc;" horiz-adv-x="485" 
d="M77 620c-32 23 -43 71 4 103c58 39 127 16 184 -12c41 -19 117 -38 138 18c26 -13 47 -64 0 -102c-74 -61 -196 27 -251 28c-30 1 -60 -6 -75 -35z" />
    <glyph glyph-name="trademark" unicode="&#x2122;" horiz-adv-x="810" 
d="M196 376v269h-96v55h257v-55h-96v-269h-65zM398 376v324h98l58 -221l57 221h99v-324h-60v256l-65 -256h-63l-64 256v-256h-60z" />
    <glyph glyph-name="guilsinglright" unicode="&#x203a;" horiz-adv-x="349" 
d="M211 460l68 -200l-68 -201c-14 -43 -69 -73 -141 -61l87 261v1v0l-87 261c72 12 127 -18 141 -61z" />
    <glyph glyph-name="oe" unicode="&#x153;" horiz-adv-x="1015" 
d="M309 544c88 0 163 -39 212 -98c5 7 11 13 17 19c53 57 129 79 203 79c248 0 302 -281 91 -333c-145 -36 -245 26 -206 125c42 -34 103 -32 152 -27c128 11 63 133 -44 128c-76 -4 -145 -68 -147 -159c-1 -75 43 -151 115 -163c50 -8 107 8 149 50l105 -52
c-55 -81 -129 -114 -226 -114c-95 0 -165 39 -210 97c-99 -118 -286 -133 -402 -17c-72 72 -97 176 -69 271c36 118 231 108 243 -4c-42 28 -122 3 -123 -76c1 -201 283 -198 283 2c0 103 -79 166 -173 147c-38 47 -121 59 -180 24c53 64 127 101 210 101z" />
    <glyph glyph-name="Ydieresis" unicode="&#x178;" horiz-adv-x="573" 
d="M183 876c38 0 69 -31 69 -69s-31 -69 -69 -69s-69 31 -69 69s31 69 69 69v0zM256 -19c-132 0 -232 70 -192 208c31 -59 112 -90 178 -87c97 3 150 48 150 146c-19 -50 -99 -75 -147 -78c-51 -3 -103 13 -144 54c-30 31 -45 76 -45 136v342h128c0 -67 -4 -301 9 -349
c11 -42 43 -64 78 -64c46 0 86 32 85 72c18 -5 29 -19 36 -35v376h130v-461c0 -158 -91 -260 -266 -260v0zM394 876c38 0 69 -31 69 -69s-31 -69 -69 -69s-69 31 -69 69s31 69 69 69z" />
    <glyph glyph-name="zcaron" unicode="&#x17e;" horiz-adv-x="524" 
d="M162 519v0c-131 0 -137 -110 -85 -159c7 43 69 49 107 49h83l-234 -409h421v111h-220l233 408h-305zM94 691h135l61 -62l59 62h135l-143 -135h-51c-44 -1 -72 18 -98 43z" />
    <glyph glyph-name="emdash" unicode="&#x2014;" horiz-adv-x="1000" 
d="M859 339c62 0 83 -44 80 -118h-798c-62 0 -83 44 -80 118h798z" />
    <glyph glyph-name="endash" unicode="&#x2013;" horiz-adv-x="627" 
d="M486 339c62 0 83 -44 80 -118h-425c-62 0 -83 44 -80 118h425z" />
    <glyph glyph-name="exclamdown" unicode="&#xa1;" horiz-adv-x="267" 
d="M70 228c5 81 58 103 129 104v-515h-129v411v0zM134 544c23 0 42 -8 59 -25c16 -16 24 -36 24 -59s-8 -43 -24 -59c-36 -36 -107 -23 -124 -68c-12 42 -37 143 7 187c16 16 36 24 58 24z" />
    <glyph glyph-name="cent" unicode="&#xa2;" horiz-adv-x="568" 
d="M460 330c-10 36 -41 62 -80 75l-108 -289c10 -2 21 -4 34 -4c54 0 96 20 126 60l96 -70c-52 -72 -125 -108 -220 -108c-28 0 -54 3 -78 10l-22 -58c-15 -42 -61 -48 -107 -43l50 135c-157 103 -157 361 18 461c50 28 109 40 167 35l16 44c17 46 61 53 110 49l-42 -115
c99 -48 96 -155 40 -182v0zM291 413c-59 -9 -113 -45 -129 -115c-11 -49 0 -103 34 -140z" />
    <glyph glyph-name="sterling" unicode="&#xa3;" horiz-adv-x="566" 
d="M396 514c-14 120 -165 90 -165 6c0 -24 18 -65 28 -92h162c-3 -74 -31 -119 -98 -119h-29c12 -67 4 -110 -27 -187c64 -8 186 -25 201 70c42 -15 83 -69 22 -151c-29 -39 -80 -56 -132 -56c-87 0 -164 38 -269 1l-44 113c27 10 52 17 75 20c38 68 53 116 41 190h-114v119
h73c-66 141 15 284 181 288c59 1 125 -27 148 -74c20 -40 14 -110 -53 -128z" />
    <glyph glyph-name="currency" unicode="&#xa4;" horiz-adv-x="626" 
d="M313 630c52 0 100 -17 139 -45l46 46c23 23 69 13 93 -18l-83 -83c28 -40 44 -88 44 -140c0 -51 -16 -99 -44 -139l45 -45c23 -24 14 -69 -17 -94l-84 84c-39 -28 -87 -45 -139 -45s-100 17 -139 45l-46 -46c-23 -23 -69 -13 -93 18l83 83c-28 39 -44 88 -44 139
c0 52 16 100 44 140l-45 45c-23 23 -14 69 17 94l84 -84c39 28 87 45 139 45v0zM313 547c-86 0 -156 -70 -156 -157c0 -86 70 -156 156 -156s156 70 156 156c0 87 -70 157 -156 157z" />
    <glyph glyph-name="yen" unicode="&#xa5;" horiz-adv-x="599" 
d="M50 698h138l111 -247l112 247h138l-148 -327h73c43 0 58 -29 56 -78h-164v-66h108c43 0 58 -29 56 -78h-164v-147h-134v147h-107c-43 0 -58 29 -56 78h163v66h-107c-43 0 -58 29 -56 78h128z" />
    <glyph glyph-name="brokenbar" unicode="&#xa6;" horiz-adv-x="338" 
d="M130 662c0 33 39 58 78 54v-326l-78 -29v301v0zM208 266v-398c0 -33 -39 -59 -78 -54v423z" />
    <glyph glyph-name="section" unicode="&#xa7;" horiz-adv-x="562" 
d="M416 532c-71 140 -237 72 -185 4c46 -59 191 -144 230 -230c30 -66 19 -144 -28 -197c12 -14 22 -29 28 -44c51 -113 -18 -260 -184 -260c-99 0 -195 65 -243 158l98 72c22 -46 74 -94 116 -106c76 -21 141 36 84 107c-61 78 -233 159 -233 287c0 49 21 90 53 119
c-31 36 -53 76 -53 122c0 97 84 164 179 164c59 0 114 -17 147 -47c46 -43 52 -108 -9 -149v0zM344 194c15 21 14 50 -12 83c-20 26 -54 52 -89 81c-22 -15 -30 -39 -12 -62c22 -29 68 -64 113 -102z" />
    <glyph glyph-name="copyright" unicode="&#xa9;" horiz-adv-x="816" 
d="M408 718c99 0 188 -40 253 -105s105 -154 105 -253s-40 -188 -105 -253s-154 -105 -253 -105s-188 40 -253 105s-105 154 -105 253s40 188 105 253s154 105 253 105v0zM408 579v0c37 0 70 -9 100 -24c38 -19 74 -77 13 -105c-26 33 -65 53 -108 54
c-76 2 -149 -56 -149 -144c0 -128 155 -193 246 -102c4 4 8 8 11 12l67 -35c-7 -10 -16 -20 -25 -30c-138 -137 -374 -39 -374 155c0 121 98 219 219 219zM609 561c-52 51 -123 83 -201 83s-149 -32 -201 -83c-51 -52 -83 -123 -83 -201s32 -149 83 -201
c52 -51 123 -83 201 -83s149 32 201 83c51 52 83 123 83 201s-32 149 -83 201z" />
    <glyph glyph-name="ordfeminine" unicode="&#xaa;" horiz-adv-x="424" 
d="M296 387v34c-92 -90 -246 -28 -246 123c0 97 74 166 153 163c77 -3 90 -71 76 -97c-14 20 -43 25 -65 25c-112 0 -114 -184 -1 -184c64 0 83 64 83 120v95v33h78v-312h-78z" />
    <glyph glyph-name="plusminus" unicode="&#xb1;" horiz-adv-x="589" 
d="M237 572c0 60 43 81 116 78v-176h97c61 0 82 -43 78 -116h-175v-97c0 -61 -43 -82 -116 -78v175h-98c-60 0 -81 43 -78 116h176v98v0zM450 121c61 0 82 -43 78 -115h-389c-60 0 -81 42 -78 115h389z" />
    <glyph glyph-name="degree" unicode="&#xb0;" horiz-adv-x="422" 
d="M372 548c0 -45 -16 -83 -47 -114s-70 -47 -114 -47c-45 0 -83 16 -114 47s-47 69 -47 115c0 44 16 81 48 112s70 47 114 47s82 -16 113 -47s47 -69 47 -113v0zM317 547c0 31 -11 56 -31 77s-44 31 -73 31c-30 0 -55 -10 -76 -31s-31 -46 -31 -76c0 -29 10 -55 31 -76
c21 -22 46 -32 75 -32s53 10 74 31c20 21 31 46 31 76z" />
    <glyph glyph-name="guillemotright" unicode="&#xbb;" horiz-adv-x="516" 
d="M169 512v0l86 -255l-86 -251h-119l86 251l-86 255h119zM400 451l66 -196l-66 -196c-14 -42 -68 -71 -138 -60l85 255v1v0l-85 255c70 11 124 -18 138 -59z" />
    <glyph glyph-name="registered" unicode="&#xae;" horiz-adv-x="698" 
d="M608 564c27 -46 40 -95 40 -149c0 -53 -13 -103 -40 -149s-63 -82 -109 -109c-47 -27 -97 -40 -150 -40s-103 13 -150 40c-46 27 -83 63 -109 109c-27 46 -40 96 -40 149c0 54 13 103 40 149c26 47 63 83 109 110c46 26 96 40 150 40c53 0 103 -14 150 -40
c46 -27 82 -63 109 -110zM555 298c21 36 31 75 31 116c0 66 -23 123 -69 169s-102 69 -167 69c-66 0 -122 -23 -169 -69c-46 -46 -70 -102 -70 -167c0 -42 11 -81 32 -117c21 -37 50 -65 87 -86s77 -32 119 -32s82 11 119 31c37 21 66 50 87 86zM485 270c2 -7 7 -13 14 -19
h-82c-4 9 -6 16 -7 22s-2 16 -2 31c-1 29 -2 47 -5 53c-2 7 -6 12 -12 16c-6 3 -18 5 -36 5h-58v-127h-72v328h145c31 0 53 -4 68 -11c14 -6 26 -17 34 -32c9 -14 14 -32 14 -52c0 -18 -3 -32 -8 -43c-6 -11 -16 -22 -31 -33c12 -7 21 -14 25 -23c4 -8 7 -23 8 -45
c2 -40 4 -64 5 -70zM404 447c7 6 11 16 11 30s-3 24 -11 30c-7 5 -23 8 -46 8h-61v-77h60c24 0 39 3 47 9z" />
    <glyph glyph-name="guillemotleft" unicode="&#xab;" horiz-adv-x="516" 
d="M347 512h118l-86 -255l87 -251h-119l-86 251l86 255v0zM116 451c14 41 68 70 137 59l-85 -255h1l-1 -1l85 -255c-69 -11 -123 18 -137 60l-66 196z" />
    <glyph glyph-name="onequarter" unicode="&#xbc;" horiz-adv-x="776" 
d="M459 673c15 40 53 47 95 43l-258 -694c-14 -37 -53 -42 -94 -37zM61 652c-5 37 21 65 73 65h64v-364h-69v299h-68zM684 121h32v-63h-32v-75h-68v75h-159v63l158 235c43 8 69 -13 69 -61v-174zM616 121v122l-83 -122h83z" />
    <glyph glyph-name="onehalf" unicode="&#xbd;" horiz-adv-x="806" 
d="M616 47h130v-64h-252c0 29 20 54 63 97c41 41 90 92 104 117c35 66 -15 102 -57 94c-25 -5 -56 -39 -36 -70c-54 -11 -79 45 -54 87c33 57 126 60 173 34c34 -19 56 -57 56 -94c0 -77 -70 -141 -127 -201zM458 673c15 40 53 47 96 43l-259 -694c-14 -37 -53 -42 -93 -37z
M61 652c-6 37 20 65 72 65h64v-364h-69v299h-67z" />
    <glyph glyph-name="threequarters" unicode="&#xbe;" horiz-adv-x="787" 
d="M241 553c108 -33 83 -213 -59 -213c-72 0 -118 46 -122 119h68c13 -84 112 -65 114 -2c1 58 -93 78 -110 41c-32 27 -22 67 24 73c30 4 66 16 66 49c0 20 -20 37 -57 37s-61 -27 -49 -56c-68 10 -70 106 38 119c60 7 133 -19 138 -87c3 -31 -14 -62 -51 -80zM695 127h32
v-63h-32v-75h-68v75h-159v63l158 235c43 7 69 -13 69 -62v-173zM627 127v122l-83 -122h83zM487 673c15 40 53 47 96 43l-259 -694c-13 -37 -53 -42 -93 -37z" />
    <glyph glyph-name="questiondown" unicode="&#xbf;" horiz-adv-x="550" 
d="M380 63v0c47 -75 -38 -155 -126 -134c-59 14 -97 64 -15 154c55 61 102 86 102 161c0 41 -30 88 -123 85c12 -143 -137 -159 -164 -308c-17 -94 37 -155 100 -186c91 -45 256 -44 318 62c47 81 9 185 -92 166zM281 537c23 0 42 -8 57 -24c43 -43 19 -142 8 -184
c-18 45 -88 33 -122 68c-50 50 -16 140 57 140z" />
    <glyph glyph-name="mu" unicode="&#xb5;" horiz-adv-x="577" 
d="M386 -4v60c-21 -48 -93 -70 -141 -73c-20 -1 -41 0 -61 5v-182h-128v619c0 55 44 98 128 92v-203c1 -65 3 -126 9 -148c11 -42 44 -64 79 -64c46 0 73 27 73 67c16 -4 34 -24 41 -42v26v364h131v-521h-131z" />
    <glyph glyph-name="acute" unicode="&#xb4;" horiz-adv-x="339" 
d="M289 751l-127 -143c-22 -24 -60 -25 -92 -6l66 112c44 74 78 90 153 37z" />
    <glyph glyph-name="paragraph" unicode="&#xb6;" horiz-adv-x="564" 
d="M253 -187v521c-265 2 -268 385 40 385h221c-2 -30 -20 -56 -47 -56h-12v-803c0 -35 -32 -47 -67 -47v850h-68v-803c0 -35 -33 -49 -67 -47z" />
    <glyph glyph-name="Ccedilla" unicode="&#xc7;" horiz-adv-x="727" 
d="M622 463c-37 101 -164 138 -267 115c-110 -23 -189 -118 -189 -225c0 -204 194 -284 334 -219c31 15 65 41 102 79l87 -95c-90 -91 -168 -133 -287 -134l8 -2c84 -31 69 -149 -49 -161c-93 -9 -125 52 -103 92c98 -71 170 37 72 40l-27 -1l8 41
c-258 54 -334 355 -227 545c75 134 195 176 329 178c140 2 351 -83 209 -253z" />
    <glyph glyph-name="AE" unicode="&#xc6;" horiz-adv-x="907" 
d="M324 610c34 70 88 90 177 89h356v-130h-270v-155h270c-3 -62 -29 -128 -110 -128h-160v-155h270v-131h-403v145c-65 -1 -129 -10 -118 -62c-95 27 -82 117 -30 158c40 31 97 33 148 32v306c0 3 0 6 1 9l-288 -588h-138z" />
    <glyph glyph-name="Aring" unicode="&#xc5;" horiz-adv-x="754" 
d="M276 610v0l-236 -610h138l200 514l94 -241c-59 0 -133 6 -178 -32c-48 -41 -53 -131 45 -158c-21 71 103 61 182 61l54 -144h139l-269 699c-92 16 -142 -18 -169 -89zM380 966v0c60 0 109 -49 109 -109s-49 -108 -109 -108s-108 48 -108 108s48 109 108 109zM380 900
c-23 0 -43 -19 -43 -43s20 -43 43 -43c24 0 43 19 43 43s-19 43 -43 43z" />
    <glyph glyph-name="Adieresis" unicode="&#xc4;" horiz-adv-x="751" 
d="M275 607c27 70 76 105 168 89l268 -696h-138l-54 143c-79 0 -203 10 -181 -61c-97 28 -93 116 -45 157c45 39 118 32 177 32l-94 240c-84 -216 -125 -322 -198 -511h-138zM292 929c19 0 35 -7 48 -20s20 -29 20 -48s-7 -35 -20 -48s-29 -20 -48 -20s-35 7 -48 20
s-20 29 -20 48s7 35 20 48s29 20 48 20v0zM501 929c19 0 35 -7 48 -20c14 -13 20 -29 20 -48s-6 -35 -20 -48c-13 -13 -29 -20 -48 -20s-34 7 -48 20c-13 13 -20 29 -20 48s7 35 20 48c14 13 29 20 48 20z" />
    <glyph glyph-name="Atilde" unicode="&#xc3;" horiz-adv-x="751" 
d="M275 607c27 70 76 105 168 89l268 -696h-138l-54 143c-79 0 -203 10 -181 -61c-97 28 -93 116 -45 157c45 39 118 32 177 32l-94 240c-84 -216 -125 -322 -198 -511h-138zM231 802c-32 23 -43 71 4 103c58 39 127 16 184 -12c41 -19 117 -38 138 18c26 -13 47 -64 0 -102
c-74 -61 -196 27 -251 28c-30 1 -60 -6 -75 -35z" />
    <glyph glyph-name="Acircumflex" unicode="&#xc2;" horiz-adv-x="751" 
d="M275 607c27 70 76 105 168 89l268 -696h-138l-54 143c-79 0 -203 10 -181 -61c-97 28 -93 116 -45 157c45 39 118 32 177 32l-94 240c-84 -216 -125 -322 -198 -511h-138zM204 790l97 91c26 25 54 43 97 42h50l141 -133h-133l-58 61l-60 -61h-134z" />
    <glyph glyph-name="Aacute" unicode="&#xc1;" horiz-adv-x="751" 
d="M275 607c27 70 76 105 168 89l268 -696h-138l-54 143c-79 0 -203 10 -181 -61c-97 28 -93 116 -45 157c45 39 118 32 177 32l-94 240c-84 -216 -125 -322 -198 -511h-138zM506 933l-127 -143c-22 -24 -60 -25 -92 -6l66 112c44 74 78 90 153 37z" />
    <glyph glyph-name="Agrave" unicode="&#xc0;" horiz-adv-x="751" 
d="M275 607l-235 -607h138c73 189 114 295 198 511l94 -240c-59 0 -132 7 -177 -32c-48 -41 -52 -129 45 -157c-22 71 102 61 181 61l54 -143h138l-268 696c-92 16 -141 -19 -168 -89zM414 790l-127 143c75 53 109 37 153 -37l66 -112c-32 -19 -70 -18 -92 6z" />
    <glyph glyph-name="Egrave" unicode="&#xc8;" horiz-adv-x="503" 
d="M265 790l-127 143c75 53 109 37 153 -37l66 -112c-32 -19 -70 -18 -92 6zM453 700h-288c-66 0 -115 -44 -115 -121v-579h403v131h-270v155h160c81 0 107 66 110 128h-270v155h270v131z" />
    <glyph glyph-name="Eacute" unicode="&#xc9;" horiz-adv-x="503" 
d="M450 933l-127 -143c-22 -24 -60 -25 -92 -6l66 112c44 74 78 90 153 37zM453 700v-131h-270v-155h270c-3 -62 -29 -128 -110 -128h-160v-155h270v-131h-403v579c0 77 49 121 115 121h288z" />
    <glyph glyph-name="Ecircumflex" unicode="&#xca;" horiz-adv-x="506" 
d="M71 790l97 91c26 25 54 43 97 42h50l141 -133h-133l-58 61l-60 -61h-134zM453 700v-131h-270v-155h270c-3 -62 -29 -128 -110 -128h-160v-155h270v-131h-403v579c0 77 49 121 115 121h288z" />
    <glyph glyph-name="Edieresis" unicode="&#xcb;" horiz-adv-x="503" 
d="M152 929c19 0 35 -7 48 -20s20 -29 20 -48s-7 -35 -20 -48s-29 -20 -48 -20s-35 7 -48 20s-20 29 -20 48s7 35 20 48s29 20 48 20v0zM361 929c19 0 35 -7 48 -20c14 -13 20 -29 20 -48s-6 -35 -20 -48c-13 -13 -29 -20 -48 -20s-34 7 -48 20c-13 13 -20 29 -20 48
s7 35 20 48c14 13 29 20 48 20zM453 700v-131h-270v-155h270c-3 -62 -29 -128 -110 -128h-160v-155h270v-131h-403v579c0 77 49 121 115 121h288z" />
    <glyph glyph-name="Igrave" unicode="&#xcc;" horiz-adv-x="319" 
d="M225 0v700c-80 1 -132 -39 -132 -105v-595h132zM177 790l-127 143c75 53 109 37 153 -37l66 -112c-32 -19 -70 -18 -92 6z" />
    <glyph glyph-name="Iacute" unicode="&#xcd;" horiz-adv-x="319" 
d="M225 0h-132v595c0 66 52 106 132 105v-700zM269 933l-127 -143c-22 -24 -60 -25 -92 -6l66 112c44 74 78 90 153 37z" />
    <glyph glyph-name="Icircumflex" unicode="&#xce;" horiz-adv-x="232" 
d="M182 0h-132v595c0 66 52 106 132 105v-700zM-76 790l97 91c26 25 54 43 97 42h50l141 -133h-133l-58 61l-60 -61h-134z" />
    <glyph glyph-name="Idieresis" unicode="&#xcf;" horiz-adv-x="232" 
d="M182 0h-132v595c0 66 52 106 132 105v-700zM12 929c19 0 35 -7 48 -20s20 -29 20 -48s-7 -35 -20 -48s-29 -20 -48 -20s-35 7 -48 20s-20 29 -20 48s7 35 20 48s29 20 48 20v0zM221 929c19 0 35 -7 48 -20c14 -13 20 -29 20 -48s-6 -35 -20 -48c-13 -13 -29 -20 -48 -20
s-34 7 -48 20c-13 13 -20 29 -20 48s7 35 20 48c14 13 29 20 48 20z" />
    <glyph glyph-name="Eth" unicode="&#xd0;" horiz-adv-x="676" 
d="M334 700c60 0 106 -19 145 -39c237 -120 218 -563 -42 -644c-70 -21 -253 -17 -351 -17v312h-12c-44 0 -64 39 -64 77h76v192c0 69 29 119 117 119h131v0zM219 389h75c44 0 68 -28 72 -77h-147v-182c118 0 207 -10 261 91c43 82 45 224 -27 295c-31 30 -76 51 -122 51
h-112v-178z" />
    <glyph glyph-name="Ntilde" unicode="&#xd1;" horiz-adv-x="660" 
d="M50 594c0 56 34 106 104 106h22l302 -461v461h132v-700h-127l-301 459v-459h-132v594zM165 802c-32 23 -43 71 4 103c58 39 127 16 184 -12c41 -19 117 -38 138 18c26 -13 47 -64 0 -102c-74 -61 -196 27 -251 28c-30 1 -60 -6 -75 -35z" />
    <glyph glyph-name="Ograve" unicode="&#xd2;" horiz-adv-x="781" 
d="M392 713c-65 0 -125 -16 -182 -49c-39 -23 -73 -52 -101 -87c64 40 153 37 201 -7c25 9 51 13 80 13c64 0 117 -23 162 -68c44 -46 66 -102 66 -168c0 -67 -22 -122 -66 -168c-44 -45 -97 -68 -159 -68c-56 0 -105 18 -147 53c-52 42 -79 97 -82 167
c-5 131 105 159 156 98c42 162 -198 188 -263 58c-20 -39 -27 -99 -27 -138c0 -99 34 -185 103 -257s156 -108 260 -108c100 0 184 35 254 105s104 156 104 257c0 102 -35 189 -106 260c-70 71 -155 107 -253 107zM421 790l-127 143c75 53 109 37 153 -37l66 -112
c-32 -19 -70 -18 -92 6z" />
    <glyph glyph-name="Oacute" unicode="&#xd3;" horiz-adv-x="781" 
d="M392 713c98 0 183 -36 253 -107c71 -71 106 -158 106 -260c0 -101 -34 -187 -104 -257s-154 -105 -254 -105c-104 0 -191 36 -260 108s-103 158 -103 257c0 39 7 99 27 138c65 130 305 104 263 -58c-51 61 -161 33 -156 -98c3 -70 30 -125 82 -167c42 -35 91 -53 147 -53
c62 0 115 23 159 68c44 46 66 101 66 168c0 66 -22 122 -66 168c-45 45 -98 68 -162 68c-29 0 -55 -4 -80 -13c-48 44 -137 47 -201 7c28 35 62 64 101 87c57 33 117 49 182 49zM501 933l-127 -143c-22 -24 -60 -25 -92 -6l66 112c44 74 78 90 153 37z" />
    <glyph glyph-name="Ocircumflex" unicode="&#xd4;" horiz-adv-x="781" 
d="M392 713c98 0 183 -36 253 -107c71 -71 106 -158 106 -260c0 -101 -34 -187 -104 -257s-154 -105 -254 -105c-104 0 -191 36 -260 108s-103 158 -103 257c0 39 7 99 27 138c65 130 305 104 263 -58c-51 61 -161 33 -156 -98c3 -70 30 -125 82 -167c42 -35 91 -53 147 -53
c62 0 115 23 159 68c44 46 66 101 66 168c0 66 -22 122 -66 168c-45 45 -98 68 -162 68c-29 0 -55 -4 -80 -13c-48 44 -137 47 -201 7c28 35 62 64 101 87c57 33 117 49 182 49zM199 790l97 91c26 25 54 43 97 42h50l141 -133h-133l-58 61l-60 -61h-134z" />
    <glyph glyph-name="Otilde" unicode="&#xd5;" horiz-adv-x="781" 
d="M392 713c98 0 183 -36 253 -107c71 -71 106 -158 106 -260c0 -101 -34 -187 -104 -257s-154 -105 -254 -105c-104 0 -191 36 -260 108s-103 158 -103 257c0 39 7 99 27 138c65 130 305 104 263 -58c-51 61 -161 33 -156 -98c3 -70 30 -125 82 -167c42 -35 91 -53 147 -53
c62 0 115 23 159 68c44 46 66 101 66 168c0 66 -22 122 -66 168c-45 45 -98 68 -162 68c-29 0 -55 -4 -80 -13c-48 44 -137 47 -201 7c28 35 62 64 101 87c57 33 117 49 182 49zM227 802c-32 23 -43 71 4 103c58 39 127 16 184 -12c41 -19 117 -38 138 18
c26 -13 47 -64 0 -102c-74 -61 -196 27 -251 28c-30 1 -60 -6 -75 -35z" />
    <glyph glyph-name="Odieresis" unicode="&#xd6;" horiz-adv-x="821" 
d="M412 713c98 0 183 -36 253 -107c71 -71 106 -158 106 -260c0 -101 -34 -187 -104 -257s-154 -105 -254 -105c-104 0 -191 36 -260 108s-103 158 -103 257c0 39 7 99 27 138c65 130 305 104 263 -58c-51 61 -161 33 -156 -98c3 -70 30 -125 82 -167c42 -35 91 -53 147 -53
c62 0 115 23 159 68c44 46 66 101 66 168c0 66 -22 122 -66 168c-45 45 -98 68 -162 68c-29 0 -55 -4 -80 -13c-48 44 -137 47 -201 7c28 35 62 64 101 87c57 33 117 49 182 49zM307 929c19 0 35 -7 48 -20s20 -29 20 -48s-7 -35 -20 -48s-29 -20 -48 -20s-35 7 -48 20
s-20 29 -20 48s7 35 20 48s29 20 48 20v0zM516 929c19 0 35 -7 48 -20c14 -13 20 -29 20 -48s-6 -35 -20 -48c-13 -13 -29 -20 -48 -20s-34 7 -48 20c-13 13 -20 29 -20 48s7 35 20 48c14 13 29 20 48 20z" />
    <glyph glyph-name="multiply" unicode="&#xd7;" horiz-adv-x="543" 
d="M346 502c46 46 94 29 147 -28l-134 -134l74 -74c46 -46 30 -95 -28 -147l-134 133l-74 -74c-46 -46 -94 -29 -147 28l133 134l-74 74c-46 46 -29 95 29 147l133 -133z" />
    <glyph glyph-name="Oslash" unicode="&#xd8;" horiz-adv-x="848" 
d="M441 711c74 0 140 -20 199 -61l19 22c37 45 72 58 122 32l-86 -102c69 -70 103 -155 103 -256c0 -100 -35 -186 -104 -256c-69 -69 -153 -104 -252 -104c-81 0 -152 22 -211 65l-68 -81c-42 -49 -81 -44 -113 -21l127 151c-65 70 -97 153 -97 249c0 39 8 98 27 137
c65 130 303 104 262 -57c-51 60 -161 33 -156 -98c3 -51 19 -96 48 -132l295 351c-35 21 -74 32 -117 32c-29 0 -56 -4 -80 -13c-48 43 -136 47 -200 7c28 35 61 64 101 87c56 32 116 48 181 48v0zM314 150c38 -25 80 -37 127 -37c62 0 115 22 159 67c43 45 65 101 65 167
c0 60 -18 111 -54 155z" />
    <glyph glyph-name="Ugrave" unicode="&#xd9;" horiz-adv-x="598" 
d="M50 700v-414c0 -175 45 -298 246 -298s252 124 252 298v414c-104 3 -132 -48 -132 -121v-312c0 -96 -35 -152 -121 -152c-85 0 -112 61 -112 149v436h-133zM313 790l-127 143c75 53 109 37 153 -37l66 -112c-32 -19 -70 -18 -92 6z" />
    <glyph glyph-name="Uacute" unicode="&#xda;" horiz-adv-x="598" 
d="M50 700h133v-436c0 -88 27 -149 112 -149c86 0 121 56 121 152v312c0 73 28 124 132 121v-414c0 -174 -51 -298 -252 -298s-246 123 -246 298v414zM409 933l-127 -143c-22 -24 -60 -25 -92 -6l66 112c44 74 78 90 153 37z" />
    <glyph glyph-name="Ucircumflex" unicode="&#xdb;" horiz-adv-x="598" 
d="M50 700h133v-436c0 -88 27 -149 112 -149c86 0 121 56 121 152v312c0 73 28 124 132 121v-414c0 -174 -51 -298 -252 -298s-246 123 -246 298v414zM107 790l97 91c26 25 54 43 97 42h50l141 -133h-133l-58 61l-60 -61h-134z" />
    <glyph glyph-name="Udieresis" unicode="&#xdc;" horiz-adv-x="598" 
d="M50 700h133v-436c0 -88 27 -149 112 -149c86 0 121 56 121 152v312c0 73 28 124 132 121v-414c0 -174 -51 -298 -252 -298s-246 123 -246 298v414zM195 929c19 0 35 -7 48 -20s20 -29 20 -48s-7 -35 -20 -48s-29 -20 -48 -20s-35 7 -48 20s-20 29 -20 48s7 35 20 48
s29 20 48 20v0zM404 929c19 0 35 -7 48 -20c14 -13 20 -29 20 -48s-6 -35 -20 -48c-13 -13 -29 -20 -48 -20s-34 7 -48 20c-13 13 -20 29 -20 48s7 35 20 48c14 13 29 20 48 20z" />
    <glyph glyph-name="Yacute" unicode="&#xdd;" horiz-adv-x="560" 
d="M248 -9c-130 0 -228 68 -189 204c31 -58 110 -88 176 -85c94 3 147 47 147 143c-19 -49 -97 -73 -145 -76c-50 -3 -101 12 -141 53c-30 30 -44 74 -44 133v337h126c0 -66 -5 -296 8 -343c11 -41 43 -64 77 -63c45 0 84 31 83 70c18 -5 29 -18 36 -35v371h128v-453
c0 -156 -90 -256 -262 -256zM386 933l-127 -143c-22 -24 -60 -25 -92 -6l66 112c44 74 78 90 153 37z" />
    <glyph glyph-name="Thorn" unicode="&#xde;" horiz-adv-x="511" 
d="M50 592c0 64 46 102 131 102v-146c116 0 200 -7 250 -88c41 -65 41 -171 -8 -233c-58 -72 -135 -78 -242 -78v-146h-131v589v0zM181 277c64 0 153 -11 153 71c0 79 -86 72 -153 72v-143z" />
    <glyph glyph-name="germandbls" unicode="&#xdf;" horiz-adv-x="553" 
d="M263 319c-31 3 -55 -3 -71 -25c-31 79 6 120 102 147c93 27 73 148 -14 148c-42 0 -79 -29 -94 -70c-7 -21 -11 -57 -11 -108v-411h-125v411c0 116 18 206 108 261c126 78 324 19 324 -138c0 -87 -57 -138 -143 -153c254 -44 215 -393 -31 -393c-26 0 -52 5 -77 16v117
c163 -85 226 190 32 198z" />
    <glyph glyph-name="agrave" unicode="&#xe0;" 
d="M436 0v57c-151 -150 -406 -48 -406 203c0 161 122 276 253 271c128 -5 149 -119 125 -162c-22 33 -70 42 -108 42c-185 0 -189 -305 0 -305c106 0 136 106 136 199v158v55h130v-518h-130zM315 608l-127 143c75 53 109 37 153 -37l66 -112c-32 -19 -70 -18 -92 6z" />
    <glyph glyph-name="aacute" unicode="&#xe1;" 
d="M436 0v57c-151 -150 -406 -48 -406 203c0 161 122 276 253 271c128 -5 149 -119 125 -162c-22 33 -70 42 -108 42c-185 0 -189 -305 0 -305c106 0 136 106 136 199v158v55h130v-518h-130zM407 751l-127 -143c-22 -24 -60 -25 -92 -6l66 112c44 74 78 90 153 37z" />
    <glyph glyph-name="acircumflex" unicode="&#xe2;" 
d="M436 0v57c-151 -150 -406 -48 -406 203c0 161 122 276 253 271c128 -5 149 -119 125 -162c-22 33 -70 42 -108 42c-185 0 -189 -305 0 -305c106 0 136 106 136 199v158v55h130v-518h-130zM105 608l97 91c26 25 54 43 97 42h50l141 -133h-133l-58 61l-60 -61h-134z" />
    <glyph glyph-name="atilde" unicode="&#xe3;" 
d="M436 0v57c-151 -150 -406 -48 -406 203c0 161 122 276 253 271c128 -5 149 -119 125 -162c-22 33 -70 42 -108 42c-185 0 -189 -305 0 -305c106 0 136 106 136 199v158v55h130v-518h-130zM133 620c-32 23 -43 71 4 103c58 39 127 16 184 -12c41 -19 117 -38 138 18
c26 -13 47 -64 0 -102c-74 -61 -196 27 -251 28c-30 1 -60 -6 -75 -35z" />
    <glyph glyph-name="adieresis" unicode="&#xe4;" 
d="M436 0v57c-151 -150 -406 -48 -406 203c0 161 122 276 253 271c128 -5 149 -119 125 -162c-22 33 -70 42 -108 42c-185 0 -189 -305 0 -305c106 0 136 106 136 199v158v55h130v-518h-130zM193 747c19 0 35 -7 48 -20s20 -29 20 -48s-7 -35 -20 -48s-29 -20 -48 -20
s-35 7 -48 20s-20 29 -20 48s7 35 20 48s29 20 48 20v0zM402 747c19 0 35 -7 48 -20c14 -13 20 -29 20 -48s-6 -35 -20 -48c-13 -13 -29 -20 -48 -20s-34 7 -48 20c-13 13 -20 29 -20 48s7 35 20 48c14 13 29 20 48 20z" />
    <glyph glyph-name="aring" unicode="&#xe5;" 
d="M436 0v57c-151 -150 -406 -48 -406 203c0 161 122 276 253 271c128 -5 149 -119 125 -162c-22 33 -70 42 -108 42c-185 0 -189 -305 0 -305c106 0 136 106 136 199v158v55h130v-518h-130z" />
    <glyph glyph-name="ae" unicode="&#xe6;" horiz-adv-x="1016" 
d="M835 193c-145 -36 -245 26 -205 125c41 -35 101 -32 151 -27c127 11 63 133 -44 127c-76 -4 -144 -67 -146 -158c-2 -75 42 -150 113 -162c51 -9 108 8 149 49l106 -51c-55 -81 -130 -114 -226 -114c-69 0 -125 21 -167 54v-37h-130v57c-151 -150 -406 -48 -406 203
c0 161 122 276 253 271c128 -5 149 -119 125 -162c-22 33 -71 42 -108 42c-185 0 -189 -305 0 -305c106 0 136 106 136 199v158v55h130v-48c50 40 114 56 178 56c247 0 301 -280 91 -332z" />
    <glyph glyph-name="ccedilla" unicode="&#xe7;" horiz-adv-x="559" 
d="M457 325c-30 109 -259 124 -294 -32c-19 -84 28 -183 141 -183c54 0 95 19 125 58l95 -69c-47 -64 -110 -99 -191 -105l5 -1c82 -31 68 -147 -48 -158c-91 -9 -123 51 -102 90c97 -70 168 37 71 39l-26 -1l7 37c-239 51 -271 377 -70 491c53 30 118 42 179 33
c165 -24 174 -167 108 -199z" />
    <glyph glyph-name="egrave" unicode="&#xe8;" horiz-adv-x="570" 
d="M403 200c211 52 157 332 -90 332c-74 0 -150 -22 -203 -79c-146 -153 -76 -464 192 -464c96 0 171 33 225 114l-105 51c-41 -42 -98 -58 -149 -49c-71 12 -115 87 -113 162c2 90 70 154 146 158c107 6 171 -116 44 -127c-50 -5 -110 -8 -151 27c-40 -99 60 -161 204 -125
zM295 608l-127 143c75 53 109 37 153 -37l66 -112c-32 -19 -70 -18 -92 6z" />
    <glyph glyph-name="eacute" unicode="&#xe9;" horiz-adv-x="570" 
d="M403 200c-144 -36 -244 26 -204 125c41 -35 101 -32 151 -27c127 11 63 133 -44 127c-76 -4 -144 -68 -146 -158c-2 -75 42 -150 113 -162c51 -9 108 7 149 49l105 -51c-54 -81 -129 -114 -225 -114c-268 0 -338 311 -192 464c53 57 129 79 203 79
c247 0 301 -280 90 -332zM387 751l-127 -143c-22 -24 -60 -25 -92 -6l66 112c44 74 78 90 153 37z" />
    <glyph glyph-name="ecircumflex" unicode="&#xea;" horiz-adv-x="570" 
d="M403 200c-144 -36 -244 26 -204 125c41 -35 101 -32 151 -27c127 11 63 133 -44 127c-76 -4 -144 -68 -146 -158c-2 -75 42 -150 113 -162c51 -9 108 7 149 49l105 -51c-54 -81 -129 -114 -225 -114c-268 0 -338 311 -192 464c53 57 129 79 203 79
c247 0 301 -280 90 -332zM85 608l97 91c26 25 54 43 97 42h50l141 -133h-133l-58 61l-60 -61h-134z" />
    <glyph glyph-name="edieresis" unicode="&#xeb;" horiz-adv-x="570" 
d="M403 200c-144 -36 -244 26 -204 125c41 -35 101 -32 151 -27c127 11 63 133 -44 127c-76 -4 -144 -68 -146 -158c-2 -75 42 -150 113 -162c51 -9 108 7 149 49l105 -51c-54 -81 -129 -114 -225 -114c-268 0 -338 311 -192 464c53 57 129 79 203 79
c247 0 301 -280 90 -332zM173 747c19 0 35 -7 48 -20s20 -29 20 -48s-7 -35 -20 -48s-29 -20 -48 -20s-35 7 -48 20s-20 29 -20 48s7 35 20 48s29 20 48 20v0zM382 747c19 0 35 -7 48 -20c14 -13 20 -29 20 -48s-6 -35 -20 -48c-13 -13 -29 -20 -48 -20s-34 7 -48 20
c-13 13 -20 29 -20 48s7 35 20 48c14 13 29 20 48 20z" />
    <glyph glyph-name="igrave" unicode="&#xec;" horiz-adv-x="319" 
d="M90 413v0v-413h129v518c-71 -1 -124 -24 -129 -105zM177 608l-127 143c75 53 109 37 153 -37l66 -112c-32 -19 -70 -18 -92 6z" />
    <glyph glyph-name="iacute" unicode="&#xed;" horiz-adv-x="319" 
d="M90 413c5 81 58 104 129 105v-518h-129v413v0zM269 751l-127 -143c-22 -24 -60 -25 -92 -6l66 112c44 74 78 90 153 37z" />
    <glyph glyph-name="icircumflex" unicode="&#xee;" horiz-adv-x="485" 
d="M173 413c5 81 58 104 129 105v-518h-129v413v0zM50 608l97 91c26 25 54 43 97 42h50l141 -133h-133l-58 61l-60 -61h-134z" />
    <glyph glyph-name="idieresis" unicode="&#xef;" horiz-adv-x="445" 
d="M153 413c5 81 58 104 129 105v-518h-129v413v0zM118 747c19 0 35 -7 48 -20s20 -29 20 -48s-7 -35 -20 -48s-29 -20 -48 -20s-35 7 -48 20s-20 29 -20 48s7 35 20 48s29 20 48 20v0zM327 747c19 0 35 -7 48 -20c14 -13 20 -29 20 -48s-6 -35 -20 -48
c-13 -13 -29 -20 -48 -20s-34 7 -48 20c-13 13 -20 29 -20 48s7 35 20 48c14 13 29 20 48 20z" />
    <glyph glyph-name="eth" unicode="&#xf0;" horiz-adv-x="607" 
d="M300 513c13 0 26 -1 39 -3c-11 19 -23 38 -38 58l-131 -40l-26 84l93 29c-19 18 -40 36 -61 52h122c11 -8 21 -16 31 -24l101 32l29 -85l-51 -16c117 -116 158 -226 156 -333v0c3 -49 -8 -99 -35 -146c-84 -147 -290 -177 -412 -55c-70 70 -93 169 -66 261
c34 112 221 104 233 -4c-40 27 -118 2 -118 -73c1 -193 272 -190 272 2c0 99 -77 159 -166 141c-37 45 -117 56 -173 23c51 62 121 97 201 97z" />
    <glyph glyph-name="ntilde" unicode="&#xf1;" horiz-adv-x="538" 
d="M169 458c22 47 93 70 141 73c51 3 102 -13 143 -54c30 -31 45 -76 45 -135v-342h-128c0 67 5 300 -8 348c-11 42 -44 64 -79 64c-45 0 -72 -27 -72 -67c-16 5 -34 24 -42 43v-27v-361h-129v518h129v-60zM104 620c-32 23 -43 71 4 103c58 39 127 16 184 -12
c41 -19 117 -38 138 18c26 -13 47 -64 0 -102c-74 -61 -196 27 -251 28c-30 1 -60 -6 -75 -35z" />
    <glyph glyph-name="ograve" unicode="&#xf2;" horiz-adv-x="606" 
d="M301 530c-83 0 -156 -37 -209 -101c58 35 141 23 180 -24c93 19 172 -43 172 -146c0 -200 -282 -202 -283 -2c1 78 82 104 123 75c-12 113 -206 122 -242 5c-28 -95 -3 -198 69 -271c127 -127 341 -96 428 57c105 183 -28 407 -238 407zM320 608l-127 143
c75 53 109 37 153 -37l66 -112c-32 -19 -70 -18 -92 6z" />
    <glyph glyph-name="oacute" unicode="&#xf3;" horiz-adv-x="606" 
d="M301 530c210 0 343 -224 238 -407c-87 -153 -301 -184 -428 -57c-72 73 -97 176 -69 271c36 117 230 108 242 -5c-41 29 -122 3 -123 -75c1 -200 283 -198 283 2c0 103 -79 165 -172 146c-39 47 -122 59 -180 24c53 64 126 101 209 101zM412 751l-127 -143
c-22 -24 -60 -25 -92 -6l66 112c44 74 78 90 153 37z" />
    <glyph glyph-name="ocircumflex" unicode="&#xf4;" horiz-adv-x="606" 
d="M301 530c210 0 343 -224 238 -407c-87 -153 -301 -184 -428 -57c-72 73 -97 176 -69 271c36 117 230 108 242 -5c-41 29 -122 3 -123 -75c1 -200 283 -198 283 2c0 103 -79 165 -172 146c-39 47 -122 59 -180 24c53 64 126 101 209 101zM110 608l97 91c26 25 54 43 97 42
h50l141 -133h-133l-58 61l-60 -61h-134z" />
    <glyph glyph-name="otilde" unicode="&#xf5;" horiz-adv-x="606" 
d="M301 530c210 0 343 -224 238 -407c-87 -153 -301 -184 -428 -57c-72 73 -97 176 -69 271c36 117 230 108 242 -5c-41 29 -122 3 -123 -75c1 -200 283 -198 283 2c0 103 -79 165 -172 146c-39 47 -122 59 -180 24c53 64 126 101 209 101zM138 620c-32 23 -43 71 4 103
c58 39 127 16 184 -12c41 -19 117 -38 138 18c26 -13 47 -64 0 -102c-74 -61 -196 27 -251 28c-30 1 -60 -6 -75 -35z" />
    <glyph glyph-name="odieresis" unicode="&#xf6;" horiz-adv-x="606" 
d="M301 530c210 0 343 -224 238 -407c-87 -153 -301 -184 -428 -57c-72 73 -97 176 -69 271c36 117 230 108 242 -5c-41 29 -122 3 -123 -75c1 -200 283 -198 283 2c0 103 -79 165 -172 146c-39 47 -122 59 -180 24c53 64 126 101 209 101zM198 747c19 0 35 -7 48 -20
s20 -29 20 -48s-7 -35 -20 -48s-29 -20 -48 -20s-35 7 -48 20s-20 29 -20 48s7 35 20 48s29 20 48 20v0zM407 747c19 0 35 -7 48 -20c14 -13 20 -29 20 -48s-6 -35 -20 -48c-13 -13 -29 -20 -48 -20s-34 7 -48 20c-13 13 -20 29 -20 48s7 35 20 48c14 13 29 20 48 20z" />
    <glyph glyph-name="divide" unicode="&#xf7;" horiz-adv-x="587" 
d="M285 517c20 0 37 -7 52 -22c14 -14 21 -32 21 -52s-7 -37 -21 -52c-15 -14 -32 -22 -52 -22c-21 0 -38 8 -53 22c-14 14 -21 31 -21 52c0 20 7 38 21 52c15 15 32 22 53 22v0zM285 128c20 0 37 -7 52 -22c14 -14 21 -31 21 -52c0 -20 -7 -38 -21 -52
c-15 -15 -32 -22 -52 -22c-21 0 -38 7 -53 22c-14 14 -21 32 -21 52c0 21 7 38 21 52c15 15 32 22 53 22zM41 304h425c62 0 83 -44 80 -118h-425c-62 0 -83 44 -80 118z" />
    <glyph glyph-name="oslash" unicode="&#xf8;" horiz-adv-x="626" 
d="M310 529c56 0 107 -15 149 -42l14 16c43 49 79 39 119 10l-70 -81c70 -82 90 -204 28 -312c-78 -135 -255 -175 -383 -94l-16 -19c-43 -49 -82 -31 -116 -7l70 80c-61 72 -80 167 -54 255c36 118 231 109 243 -4c-42 28 -122 3 -123 -76c0 -30 7 -56 18 -78l188 216
c-28 14 -61 18 -96 11c-38 47 -121 59 -180 24c53 65 127 101 209 101v0zM249 120c84 -41 205 6 205 137c0 29 -6 56 -18 78z" />
    <glyph glyph-name="ugrave" unicode="&#xf9;" horiz-adv-x="554" 
d="M181 517h-131v-236c0 -62 6 -119 15 -149c32 -100 109 -143 211 -143c94 0 168 36 206 125c14 34 22 95 21 185v220c-77 2 -130 -34 -129 -105v-149c0 -48 4 -110 -41 -140c-31 -21 -80 -21 -110 0c-44 31 -42 96 -42 144v248zM294 608l-127 143c75 53 109 37 153 -37
l66 -112c-32 -19 -70 -18 -92 6z" />
    <glyph glyph-name="uacute" unicode="&#xfa;" horiz-adv-x="554" 
d="M181 517v-248c0 -48 -2 -113 42 -144c30 -21 79 -21 110 0c45 30 41 92 41 140v149c-1 71 52 107 129 105v-220c1 -90 -7 -151 -21 -185c-38 -89 -112 -125 -206 -125c-102 0 -179 43 -211 143c-9 30 -15 87 -15 149v236h131zM386 751l-127 -143c-22 -24 -60 -25 -92 -6
l66 112c44 74 78 90 153 37z" />
    <glyph glyph-name="ucircumflex" unicode="&#xfb;" horiz-adv-x="554" 
d="M181 517v-248c0 -48 -2 -113 42 -144c30 -21 79 -21 110 0c45 30 41 92 41 140v149c-1 71 52 107 129 105v-220c1 -90 -7 -151 -21 -185c-38 -89 -112 -125 -206 -125c-102 0 -179 43 -211 143c-9 30 -15 87 -15 149v236h131zM84 608l97 91c26 25 54 43 97 42h50
l141 -133h-133l-58 61l-60 -61h-134z" />
    <glyph glyph-name="udieresis" unicode="&#xfc;" horiz-adv-x="554" 
d="M181 517v-248c0 -48 -2 -113 42 -144c30 -21 79 -21 110 0c45 30 41 92 41 140v149c-1 71 52 107 129 105v-220c1 -90 -7 -151 -21 -185c-38 -89 -112 -125 -206 -125c-102 0 -179 43 -211 143c-9 30 -15 87 -15 149v236h131zM172 747c19 0 35 -7 48 -20s20 -29 20 -48
s-7 -35 -20 -48s-29 -20 -48 -20s-35 7 -48 20s-20 29 -20 48s7 35 20 48s29 20 48 20v0zM381 747c19 0 35 -7 48 -20c14 -13 20 -29 20 -48s-6 -35 -20 -48c-13 -13 -29 -20 -48 -20s-34 7 -48 20c-13 13 -20 29 -20 48s7 35 20 48c14 13 29 20 48 20z" />
    <glyph glyph-name="yacute" unicode="&#xfd;" horiz-adv-x="552" 
d="M239 -194c-131 0 -230 69 -190 206c31 -59 110 -89 176 -87c95 4 148 48 148 145c-18 -50 -98 -74 -145 -77c-51 -3 -102 12 -142 53c-30 31 -45 75 -45 134v339h127c0 -67 -5 -297 8 -345c11 -42 43 -64 78 -64c45 0 84 32 84 71c17 -5 29 -18 35 -35v373h129v-456
c0 -157 -90 -257 -263 -257zM385 751l-127 -143c-22 -24 -60 -25 -92 -6l66 112c44 74 78 90 153 37z" />
    <glyph glyph-name="thorn" unicode="&#xfe;" horiz-adv-x="614" 
d="M178 -193h-128v791c0 54 49 102 128 104v-407c0 -92 30 -196 135 -196c185 0 182 301 -1 301c-37 0 -84 -9 -106 -42c-24 43 -10 155 123 160c129 4 250 -109 250 -268c0 -247 -252 -348 -401 -200v-243z" />
    <glyph glyph-name="ydieresis" unicode="&#xff;" horiz-adv-x="552" 
d="M239 -194c-131 0 -230 69 -190 206c31 -59 110 -89 176 -87c95 4 148 48 148 145c-18 -50 -98 -74 -145 -77c-51 -3 -102 12 -142 53c-30 31 -45 75 -45 134v339h127c0 -67 -5 -297 8 -345c11 -42 43 -64 78 -64c45 0 84 32 84 71c17 -5 29 -18 35 -35v373h129v-456
c0 -157 -90 -257 -263 -257zM171 747c19 0 35 -7 48 -20s20 -29 20 -48s-7 -35 -20 -48s-29 -20 -48 -20s-35 7 -48 20s-20 29 -20 48s7 35 20 48s29 20 48 20v0zM380 747c19 0 35 -7 48 -20c14 -13 20 -29 20 -48s-6 -35 -20 -48c-13 -13 -29 -20 -48 -20s-34 7 -48 20
c-13 13 -20 29 -20 48s7 35 20 48c14 13 29 20 48 20z" />
    <glyph glyph-name="scaron" unicode="&#x161;" horiz-adv-x="450" 
d="M30 691h135l61 -62l59 62h135l-143 -135h-51c-44 -1 -72 18 -98 43zM316 359c77 32 74 163 -80 171c-91 4 -178 -52 -178 -147c0 -93 83 -136 169 -179c135 -67 -6 -158 -108 -39l-80 -86c113 -149 365 -101 365 71c0 147 -180 171 -216 212c-15 17 -6 40 18 48
c26 10 90 -1 110 -51z" />
    <glyph glyph-name="D" unicode="D" horiz-adv-x="660" 
d="M298 700c60 0 106 -19 145 -39c237 -120 218 -563 -42 -644c-70 -21 -253 -17 -351 -17v581c0 68 29 119 117 119h131v0zM183 130c118 0 207 -10 261 91c43 82 45 224 -27 295c-31 30 -76 51 -122 51h-112v-437z" />
    <glyph glyph-name="A" unicode="A" horiz-adv-x="751" 
d="M275 607c27 70 76 105 168 89l268 -696h-138l-54 143c-79 0 -203 10 -181 -61c-97 28 -93 116 -45 157c45 39 118 32 177 32l-94 240c-84 -216 -125 -322 -198 -511h-138z" />
    <glyph glyph-name="B" unicode="B" horiz-adv-x="584" 
d="M50 0v582c1 71 34 109 96 118h137c68 0 123 -28 160 -75c58 -73 52 -186 -34 -241c166 -65 162 -286 13 -360c-32 -16 -76 -24 -133 -24h-239v0zM182 572v-446c42 0 112 -5 153 7c102 27 80 147 -15 169c-28 6 -95 11 -115 -20c-32 75 -17 127 89 147c33 6 58 36 58 72
c0 38 -31 61 -64 68c-29 6 -81 3 -106 3z" />
    <glyph glyph-name="C" unicode="C" horiz-adv-x="725" 
d="M618 461c-36 98 -173 139 -275 117c-109 -23 -175 -121 -175 -227c0 -201 192 -281 330 -216c31 14 64 40 101 78l86 -93c-90 -92 -168 -133 -289 -133c-322 0 -425 340 -309 547c74 132 193 174 325 176c139 2 347 -82 206 -249z" />
    <glyph glyph-name="periodcentered" unicode="&#xb7;" horiz-adv-x="277" 
d="M146 367c20 0 37 -7 52 -22c14 -14 21 -31 21 -52c0 -20 -7 -38 -21 -52c-15 -15 -32 -22 -52 -22c-21 0 -38 7 -53 22c-14 14 -21 32 -21 52c0 21 7 38 21 52c15 15 32 22 53 22z" />
    <glyph glyph-name="cedilla" unicode="&#xb8;" horiz-adv-x="833" 
 />
  </font>
</defs>
</svg>
